<svg width="46" height="46" viewBox="0 0 46 46" fill="none" xmlns="http://www.w3.org/2000/svg">
<rect width="46" height="46" rx="13" fill="#57CC99"/>
<g clip-path="url(#clip0_30_560)">
<path d="M22.5917 41.1136C32.3073 41.1136 40.1834 33.2375 40.1834 23.5219C40.1834 13.8062 32.3073 5.93018 22.5917 5.93018C12.8761 5.93018 5 13.8062 5 23.5219C5 33.2375 12.8761 41.1136 22.5917 41.1136Z" fill="white" fill-opacity="0.4"/>
<path d="M26.0348 12.6577C26.0348 12.2123 25.4962 11.9892 25.1813 12.3042L13.711 23.7744C13.5906 23.895 13.5086 24.0485 13.4754 24.2157C13.4422 24.3828 13.4593 24.5561 13.5244 24.7135C13.5896 24.871 13.7 25.0056 13.8417 25.1003C13.9833 25.1951 14.1499 25.2457 14.3203 25.2459H18.6487C18.9248 25.2459 19.1487 25.4698 19.1487 25.7459V34.3853C19.1487 34.8307 19.6872 35.0538 20.0022 34.7388L31.4725 23.2686C31.5929 23.148 31.6749 22.9944 31.7081 22.8273C31.7413 22.6601 31.7242 22.4869 31.659 22.3294C31.5938 22.172 31.4834 22.0374 31.3418 21.9426C31.2001 21.8479 31.0336 21.7972 30.8632 21.7971H26.5348C26.2587 21.7971 26.0348 21.5732 26.0348 21.2971V12.6577Z" fill="white"/>
</g>
<defs>
<clipPath id="clip0_30_560">
<rect width="36" height="37" fill="white" transform="translate(5 5)"/>
</clipPath>
</defs>
</svg>
