<svg width="46" height="46" viewBox="0 0 46 46" fill="none" xmlns="http://www.w3.org/2000/svg">
<rect width="46" height="46" rx="13" fill="#57CC99"/>
<g clip-path="url(#clip0_30_552)">
<path opacity="0.4" d="M29.8492 7H15.3484C10.0641 7 7.07007 9.99399 7.07007 15.2783V29.7654C7.07007 35.0497 10.0641 38.0437 15.3484 38.0437H29.8492C35.1336 38.0437 38.1138 35.0497 38.1138 29.7654V15.2783C38.1138 9.99399 35.1336 7 29.8492 7Z" fill="white"/>
<path d="M31.9976 21.8945V27.5379H26.3542" stroke="white" stroke-width="2.5" stroke-linecap="round" stroke-linejoin="round"/>
<path d="M31.9976 27.5381L25.3601 20.9006C25.2436 20.7841 25.1054 20.6916 24.9532 20.6285C24.801 20.5655 24.6378 20.533 24.4731 20.533C24.3083 20.533 24.1452 20.5655 23.993 20.6285C23.8407 20.6916 23.7025 20.7841 23.586 20.9006L20.9708 23.5158C20.8543 23.6323 20.7161 23.7248 20.5639 23.7878C20.4117 23.8509 20.2485 23.8834 20.0838 23.8834C19.919 23.8834 19.7559 23.8509 19.6037 23.7878C19.4514 23.7248 19.3132 23.6323 19.1967 23.5158L13.1863 17.5054" stroke="white" stroke-width="2.5" stroke-linecap="round" stroke-linejoin="round"/>
</g>
<defs>
<clipPath id="clip0_30_552">
<rect width="32" height="32" fill="white" transform="translate(7 7)"/>
</clipPath>
</defs>
</svg>
