<svg width="69" height="68" viewBox="0 0 69 68" fill="none" xmlns="http://www.w3.org/2000/svg">
<rect x="0.333374" width="68" height="68" rx="20" fill="#57CC99"/>
<path opacity="0.4" d="M44.4197 13H24.6122C17.394 13 13.3043 17.0897 13.3043 24.3078V44.0965C13.3043 51.3147 17.394 55.4044 24.6122 55.4044H44.4197C51.6379 55.4044 55.7087 51.3147 55.7087 44.0965V24.3078C55.7087 17.0897 51.6379 13 44.4197 13Z" fill="white"/>
<path d="M24.6869 28.624C23.7258 28.624 22.9342 29.4155 22.9342 30.3955V44.9638C22.9342 45.925 23.7258 46.7165 24.6869 46.7165C25.667 46.7165 26.4585 45.925 26.4585 44.9638V30.3955C26.4585 29.4155 25.667 28.624 24.6869 28.624Z" fill="white"/>
<path d="M34.5815 21.6694C33.6203 21.6694 32.8288 22.461 32.8288 23.441V44.9636C32.8288 45.9247 33.6203 46.7163 34.5815 46.7163C35.5615 46.7163 36.353 45.9247 36.353 44.9636V23.441C36.353 22.461 35.5615 21.6694 34.5815 21.6694Z" fill="white"/>
<path d="M44.344 36.313C43.364 36.313 42.5724 37.1046 42.5724 38.0846V44.9635C42.5724 45.9247 43.364 46.7162 44.3251 46.7162C45.3051 46.7162 46.0967 45.9247 46.0967 44.9635V38.0846C46.0967 37.1046 45.3051 36.313 44.344 36.313Z" fill="white"/>
</svg>
