<svg width="68" height="68" viewBox="0 0 68 68" fill="none" xmlns="http://www.w3.org/2000/svg">
<rect width="68" height="68" rx="20" fill="#57CC99"/>
<path opacity="0.4" d="M15.454 22.1416H39.8178C40.9449 22.1416 41.8597 23.0564 41.8597 24.1835C41.8597 25.3106 40.9449 26.2254 39.8178 26.2254H15.454C14.3269 26.2254 13.4121 25.3106 13.4121 24.1835C13.4121 23.0564 14.3269 22.1416 15.454 22.1416Z" fill="white"/>
<mask id="mask0_26_4099" style="mask-type:alpha" maskUnits="userSpaceOnUse" x="37" y="13" width="18" height="22">
<path fill-rule="evenodd" clip-rule="evenodd" d="M37 34.9889V13H54.5697V34.9889H37Z" fill="white"/>
</mask>
<g mask="url(#mask0_26_4099)">
<path d="M38.379 13.1875C38.6364 13.1875 38.8901 13.2592 39.1144 13.3989L53.706 22.5941C54.1068 22.8478 54.3514 23.2873 54.3514 23.7616C54.3514 24.236 54.1068 24.6755 53.706 24.9292L39.1144 34.1243C38.6897 34.3909 38.1528 34.4075 37.7134 34.1629C37.2721 33.9202 37 33.4587 37 32.9568V14.5665C37 14.0645 37.2721 13.603 37.7134 13.3603C37.9211 13.2445 38.151 13.1875 38.379 13.1875Z" fill="white"/>
</g>
<path opacity="0.4" d="M52.8922 46.2629H28.5284C27.4013 46.2629 26.4865 45.3482 26.4865 44.221C26.4865 43.0939 27.4013 42.1792 28.5284 42.1792H52.8922C54.0193 42.1792 54.9341 43.0939 54.9341 44.221C54.9341 45.3482 54.0193 46.2629 52.8922 46.2629Z" fill="white"/>
<mask id="mask1_26_4099" style="mask-type:alpha" maskUnits="userSpaceOnUse" x="13" y="32" width="18" height="23">
<path fill-rule="evenodd" clip-rule="evenodd" d="M30.5698 32.9937V54.9825H13.0001V32.9937H30.5698Z" fill="white"/>
</mask>
<g mask="url(#mask1_26_4099)">
<path d="M29.1909 54.7948C28.9335 54.7948 28.6798 54.7231 28.4555 54.5834L13.8639 45.3882C13.463 45.1345 13.2185 44.6951 13.2185 44.2207C13.2185 43.7463 13.463 43.3069 13.8639 43.0532L28.4555 33.858C28.8802 33.5914 29.4171 33.5749 29.8565 33.8194C30.2978 34.0621 30.5699 34.5236 30.5699 35.0256V53.4158C30.5699 53.9178 30.2978 54.3793 29.8565 54.622C29.6488 54.7378 29.4189 54.7948 29.1909 54.7948Z" fill="white"/>
</g>
</svg>
