<svg width="69" height="68" viewBox="0 0 69 68" fill="none" xmlns="http://www.w3.org/2000/svg">
<rect x="0.666687" width="68" height="68" rx="20" fill="#57CC99"/>
<g clip-path="url(#clip0_26_4125)">
<path fill-rule="evenodd" clip-rule="evenodd" d="M57.7657 25.8889H48.0539C43.5344 25.8968 39.8731 29.4666 39.8649 33.8732C39.8588 38.2898 43.5242 41.8755 48.0539 41.8815H57.7739V42.5831C57.7739 50.2872 53.1035 54.8429 45.1999 54.8429H24.4817C16.5761 54.8429 11.9057 50.2872 11.9057 42.5831V25.8034C11.9057 18.0993 16.5761 13.5615 24.4817 13.5615H45.1917C53.0953 13.5615 57.7657 18.0993 57.7657 25.8034V25.8889ZM22.7755 25.8709H35.7103H35.7185H35.7348C36.7031 25.8669 37.4859 25.0977 37.4818 24.1516C37.4778 23.2075 36.6868 22.4442 35.7185 22.4482H22.7755C21.8133 22.4521 21.0325 23.2134 21.0284 24.1536C21.0243 25.0977 21.8072 25.8669 22.7755 25.8709Z" fill="white"/>
<path opacity="0.4" d="M44.0992 34.8827C44.5788 37.0642 46.4914 38.599 48.6749 38.5591H56.1283C57.0369 38.5591 57.7738 37.8066 57.7738 36.8766V31.0707C57.7719 30.1426 57.0369 29.3882 56.1283 29.3862H48.4995C46.0156 29.3942 44.0095 31.4559 44.0134 33.9966C44.0134 34.294 44.0426 34.5913 44.0992 34.8827Z" fill="white"/>
<path d="M48.6 36.2665C49.8666 36.2665 50.8934 35.2397 50.8934 33.9731C50.8934 32.7065 49.8666 31.6797 48.6 31.6797C47.3334 31.6797 46.3066 32.7065 46.3066 33.9731C46.3066 35.2397 47.3334 36.2665 48.6 36.2665Z" fill="white"/>
</g>
<defs>
<clipPath id="clip0_26_4125">
<rect width="47" height="42" fill="white" transform="translate(11.6667 13)"/>
</clipPath>
</defs>
</svg>
