<svg width="38" height="39" viewBox="0 0 38 39" fill="none" xmlns="http://www.w3.org/2000/svg">
<rect y="0.0234375" width="38" height="38" rx="19" fill="#57CC99"/>
<g clip-path="url(#clip0_29_4316)">
<path opacity="0.4" d="M29.2062 23.6491C29.2062 26.5868 26.8315 28.9664 23.8736 28.9769H23.863H13.3569C10.4097 28.9769 8.00311 26.6078 8.00311 23.6701V23.6597C8.00311 23.6597 8.00947 18.9994 8.01795 16.6556C8.01902 16.2155 8.52789 15.9691 8.87456 16.2428C11.3935 18.2276 15.8981 21.8465 15.9543 21.8939C16.707 22.493 17.6611 22.831 18.6365 22.831C19.6118 22.831 20.566 22.493 21.3187 21.8823C21.3748 21.8455 25.7787 18.335 28.3358 16.3176C28.6836 16.0428 29.1946 16.2892 29.1956 16.7282C29.2062 19.0541 29.2062 23.6491 29.2062 23.6491Z" fill="white"/>
<path d="M28.6497 12.839C27.7316 11.1206 25.925 10.0234 23.9362 10.0234H13.3559C11.367 10.0234 9.56052 11.1206 8.64243 12.839C8.43676 13.2233 8.53429 13.7024 8.87672 13.974L16.7484 20.2274C17.2996 20.6696 17.9675 20.8896 18.6355 20.8896C18.6397 20.8896 18.6428 20.8896 18.6461 20.8896C18.6492 20.8896 18.6534 20.8896 18.6566 20.8896C19.3245 20.8896 19.9925 20.6696 20.5437 20.2274L28.4153 13.974C28.7578 13.7024 28.8553 13.2233 28.6497 12.839Z" fill="white"/>
</g>
<defs>
<clipPath id="clip0_29_4316">
<rect width="22" height="19" fill="white" transform="translate(8.00311 10.0234)"/>
</clipPath>
</defs>
</svg>
