<svg width="21" height="21" viewBox="0 0 21 21" fill="none" xmlns="http://www.w3.org/2000/svg">
<path d="M10.5 0.362549C8.4913 0.362549 6.52768 0.962964 4.85749 2.08788C3.18731 3.21279 1.88556 4.81167 1.11685 6.68233C0.348153 8.553 0.147023 10.6114 0.538903 12.5973C0.930793 14.5832 1.89807 16.4073 3.31845 17.8391C4.73883 19.2708 6.5485 20.2458 8.5186 20.6408C10.4887 21.0359 12.5308 20.8332 14.3866 20.0583C16.2424 19.2834 17.8286 17.9713 18.9446 16.2877C20.0606 14.6041 20.6563 12.6248 20.6563 10.6C20.6534 7.88578 19.5825 5.28349 17.6784 3.36421C15.7744 1.44493 13.1927 0.365412 10.5 0.362549ZM16.2764 8.96104L11.7695 10.9072L15.0049 14.821C15.1375 14.9816 15.2014 15.1887 15.1825 15.3967C15.1637 15.6048 15.0636 15.7968 14.9043 15.9305C14.745 16.0641 14.5396 16.1285 14.3332 16.1095C14.1268 16.0905 13.9363 15.9896 13.8037 15.829L10.5 11.8305L7.19434 15.829C7.06173 15.9896 6.87128 16.0905 6.66488 16.1095C6.45848 16.1285 6.25304 16.0641 6.09375 15.9305C5.93447 15.7968 5.83439 15.6048 5.81552 15.3967C5.79666 15.1887 5.86056 14.9816 5.99317 14.821L9.2305 10.9072L4.72364 8.96104C4.6264 8.92243 4.53784 8.86447 4.46321 8.79069C4.38859 8.717 4.3294 8.6288 4.28916 8.53163C4.24893 8.43436 4.22845 8.33003 4.22896 8.2246C4.22947 8.11926 4.25095 8.01508 4.29212 7.91825C4.3333 7.82141 4.39333 7.73387 4.46867 7.66084C4.544 7.58781 4.63311 7.53076 4.73072 7.49307C4.82833 7.45538 4.93244 7.43781 5.0369 7.44142C5.14137 7.44502 5.24405 7.46971 5.33887 7.51404L9.7188 9.40597V4.89068C9.7188 4.68182 9.8011 4.48151 9.9476 4.33383C10.0941 4.18615 10.2928 4.10318 10.5 4.10318C10.7072 4.10318 10.9059 4.18615 11.0524 4.33383C11.1989 4.48151 11.2813 4.68182 11.2813 4.89068V9.40597L15.6611 7.51404C15.756 7.46971 15.8586 7.44502 15.9631 7.44142C16.0676 7.43781 16.1717 7.45538 16.2693 7.49307C16.3669 7.53076 16.456 7.58781 16.5313 7.66084C16.6067 7.73387 16.6667 7.82141 16.7079 7.91825C16.7491 8.01508 16.7705 8.11926 16.771 8.2246C16.7716 8.33003 16.7511 8.43436 16.7108 8.53163C16.6706 8.6288 16.6114 8.717 16.5368 8.79069C16.4622 8.86447 16.3736 8.92243 16.2764 8.96104Z" fill="#57CC99"/>
</svg>
