<svg class="svg-icon" style="width: 1em; height: 1em;vertical-align: middle;fill: currentColor;overflow: hidden;" viewBox="0 0 1024 1024" version="1.1" xmlns="http://www.w3.org/2000/svg"><path d="M965.54 167.96a9.984 9.984 0 0 0-9.22-6.16h-92.2V69.62c0-4.06-2.42-7.7-6.16-9.24s-8.04-0.7-10.9 2.16l-85.56 85.56a10.06 10.06 0 0 0-2.92 7.06v98.04l-36.82 36.82c-70.58-67.1-165.96-108.34-270.8-108.34-216.86 0-393.28 176.42-393.28 393.28s176.42 393.28 393.28 393.28 393.28-176.42 393.28-393.28c0-104.84-41.24-200.22-108.34-270.8l36.82-36.82h98.04c2.66 0 5.2-1.04 7.08-2.92l85.54-85.56a9.978 9.978 0 0 0 2.16-10.9z m-141.3 407c0 205.82-167.46 373.28-373.28 373.28S77.68 780.78 77.68 574.96s167.46-373.28 373.28-373.28c99.32 0 189.7 39 256.66 102.5l-40.84 40.82c-56.48-53.02-132.42-85.56-215.82-85.56-173.98 0-315.52 141.54-315.52 315.52s141.54 315.54 315.52 315.54 315.54-141.56 315.54-315.54c0-83.4-32.54-159.34-85.58-215.82l40.84-40.82c63.48 66.94 102.48 157.32 102.48 256.64z m-380.34 7.08c1.94 1.94 4.5 2.92 7.06 2.92 2.56 0 5.12-0.98 7.08-2.92l43.6-43.62a62.118 62.118 0 0 1 11.84 36.54c0 34.48-28.04 62.52-62.52 62.52s-62.52-28.04-62.52-62.52c0-34.46 28.04-62.52 62.52-62.52 13.64 0 26.26 4.4 36.54 11.84l-43.6 43.62a9.97 9.97 0 0 0 0 14.14z m57.86-72.02c-14-11-31.64-17.58-50.8-17.58-45.5 0-82.52 37.02-82.52 82.52s37.02 82.52 82.52 82.52 82.52-37.02 82.52-82.52c0-19.16-6.58-36.78-17.56-50.8l38.18-38.2c20.66 23.9 33.2 55 33.2 89 0 75.18-61.16 136.34-136.34 136.34s-136.34-61.16-136.34-136.34 61.16-136.34 136.34-136.34c34 0 65.1 12.54 89 33.2l-38.2 38.2z m-50.8-91.4c-86.2 0-156.34 70.14-156.34 156.34s70.14 156.34 156.34 156.34 156.34-70.14 156.34-156.34c0-39.5-14.76-75.62-39.02-103.16l40.9-40.9c34.68 38.06 55.86 88.64 55.86 144.06 0 118.04-96.04 214.08-214.08 214.08S236.88 693 236.88 574.96s96.04-214.08 214.08-214.08c55.44 0 106.02 21.18 144.08 55.88l-40.9 40.9c-27.56-24.26-63.66-39.04-103.18-39.04z m0-77.74c-129.06 0-234.08 105.02-234.08 234.08 0 129.08 105.02 234.08 234.08 234.08 129.08 0 234.08-105 234.08-234.08 0-60.94-23.42-116.52-61.72-158.2l43.46-43.46c49.4 52.84 79.72 123.78 79.72 201.66 0 162.96-132.58 295.54-295.54 295.54S155.44 737.92 155.44 574.96 288 279.44 450.96 279.44c77.9 0 148.82 30.3 201.68 79.72l-43.46 43.44c-41.7-38.3-97.28-61.72-158.22-61.72z m415.66-93.54h-88.04V159.3l65.54-65.54V171.8c0 5.52 4.48 10 10 10h78.04l-65.54 65.54z" fill="#23130D" /><path d="M932.16 181.8l-65.54 65.54h-88.04V159.3l65.54-65.54V171.8c0 5.52 4.48 10 10 10h78.04z" fill="#F9C139" /><path d="M883.96 230l-17.34 17.34h-88.04V159.3l17.34-17.34V230z" fill="#23130D" opacity=".2" /><path d="M513.48 574.96c0 3.4-0.28 6.76-0.8 10.02-4.8 29.72-30.64 52.5-61.72 52.5-34.48 0-62.52-28.04-62.52-62.52 0-34.46 28.04-62.52 62.52-62.52 13.64 0 26.26 4.4 36.54 11.84l-43.44 43.46c-0.06 0.04-0.12 0.1-0.16 0.16-0.24 0.22-0.46 0.46-0.66 0.72-0.02 0-0.02 0.02-0.02 0.04a9.7 9.7 0 0 0-1.18 1.78c-0.12 0.24-0.24 0.5-0.34 0.76-0.12 0.3-0.24 0.6-0.32 0.92-0.1 0.3-0.18 0.6-0.24 0.92-0.12 0.64-0.18 1.28-0.18 1.92v0.06c0 0.32 0.02 0.66 0.06 0.98 0.02 0.34 0.08 0.66 0.14 1 0.1 0.44 0.22 0.88 0.38 1.32 0.14 0.44 0.34 0.86 0.54 1.26 0.04 0.06 0.06 0.12 0.08 0.16 0.24 0.42 0.5 0.84 0.8 1.22 0.28 0.38 0.6 0.74 0.94 1.08 0.48 0.5 1 0.92 1.56 1.28 0.68 0.44 1.4 0.8 2.16 1.08 0.74 0.26 1.52 0.44 2.32 0.52 0.02 0.02 0.04 0.02 0.06 0 0.32 0.02 0.64 0.04 0.96 0.04 2.56 0 5.12-0.98 7.08-2.92l17.06-17.06 26.54-26.56a62.228 62.228 0 0 1 11.84 36.54z" fill="#EC7063" /><path d="M587.3 574.96c0 3.36-0.12 6.72-0.38 10.02-5.12 70.52-64.14 126.32-135.96 126.32-75.18 0-136.34-61.16-136.34-136.34s61.16-136.34 136.34-136.34c34 0 65.1 12.54 89 33.2l-38.2 38.2c-14-11-31.64-17.58-50.8-17.58-45.5 0-82.52 37.02-82.52 82.52s37.02 82.52 82.52 82.52c42.1 0 76.96-31.7 81.92-72.5 0.4-3.28 0.6-6.62 0.6-10.02 0-3.38-0.2-6.72-0.62-9.98-1.84-15.28-7.9-29.28-16.94-40.82l38.18-38.2c18.62 21.54 30.64 48.92 32.84 79.02 0.24 3.3 0.36 6.62 0.36 9.98z" fill="#E1E1E5" /><path d="M665.04 574.96c0 3.36-0.08 6.7-0.24 10.02-5.24 113.4-99.16 204.06-213.84 204.06-118.04 0-214.08-96.04-214.08-214.08s96.04-214.08 214.08-214.08c55.44 0 106.02 21.18 144.08 55.88l-40.9 40.9c-27.56-24.26-63.66-39.04-103.18-39.04-86.2 0-156.34 70.14-156.34 156.34s70.14 156.34 156.34 156.34c82.84 0 150.84-64.78 156.02-146.32 0.22-3.32 0.32-6.66 0.32-10.02s-0.1-6.68-0.32-9.98c-2.26-35.58-16.5-67.98-38.7-93.18l40.9-40.9c32.58 35.76 53.26 82.58 55.64 134.08 0.14 3.3 0.22 6.64 0.22 9.98z" fill="#EC7063" /><path d="M746.5 574.96c0 3.36-0.06 6.7-0.18 10.02-5.3 158.34-135.76 285.52-295.36 285.52-162.96 0-295.52-132.58-295.52-295.54S288 279.44 450.96 279.44c77.9 0 148.82 30.3 201.68 79.72l-43.46 43.44c-41.7-38.3-97.28-61.72-158.22-61.72-129.06 0-234.08 105.02-234.08 234.08 0 129.08 105.02 234.08 234.08 234.08 125.72 0 228.6-99.6 233.86-224.06 0.14-3.32 0.22-6.66 0.22-10.02 0-3.34-0.08-6.68-0.22-9.98-2.4-57.02-25.3-108.82-61.5-148.22l43.46-43.46c47.28 50.58 77.08 117.72 79.56 191.68 0.1 3.32 0.16 6.64 0.16 9.98z" fill="#E1E1E5" /><path d="M450.96 448.62a126.084 126.084 0 0 1 74 24.058l-24.296 24.296c-14.828-9.534-31.842-14.534-49.704-14.534-51.016 0-92.52 41.504-92.52 92.52s41.504 92.52 92.52 92.52c46.728 0 86.212-34.948 91.846-81.29 0.446-3.664 0.674-7.442 0.674-11.23 0-3.856-0.236-7.642-0.692-11.176a91.966 91.966 0 0 0-13.838-38.514l24.302-24.314c13.838 19.002 21.992 41.184 23.716 64.75 0.222 3.044 0.334 6.156 0.334 9.254a118.74 118.74 0 0 1-0.354 9.296c-4.766 65.632-60.104 117.044-125.986 117.044-69.664 0-126.34-56.676-126.34-126.34s56.674-126.34 126.338-126.34m0-10c-75.18 0-136.34 61.16-136.34 136.34s61.16 136.34 136.34 136.34c71.82 0 130.84-55.8 135.96-126.32 0.26-3.3 0.38-6.66 0.38-10.02s-0.12-6.68-0.36-9.98c-2.2-30.1-14.22-57.48-32.84-79.02l-38.18 38.2c9.04 11.54 15.1 25.54 16.94 40.82 0.42 3.26 0.62 6.6 0.62 9.98 0 3.4-0.2 6.74-0.6 10.02-4.96 40.8-39.82 72.5-81.92 72.5-45.5 0-82.52-37.02-82.52-82.52s37.02-82.52 82.52-82.52c19.16 0 36.8 6.58 50.8 17.58l38.2-38.2c-23.9-20.66-55-33.2-89-33.2z" fill="#050505" opacity=".2" /><path d="M450.96 289.44c69.076 0 135.134 24.814 187.164 70.09l-29.368 29.354c-44.124-37.474-99.786-58.006-157.796-58.006-134.586 0-244.08 109.494-244.08 244.08s109.494 244.08 244.08 244.08c131.202 0 238.314-102.626 243.852-233.638 0.154-3.654 0.23-7.07 0.23-10.442 0-3.32-0.078-6.82-0.228-10.4-2.276-54.1-22.714-106.062-57.776-147.372l29.37-29.37c42.996 49.45 67.746 112.076 69.938 177.464 0.104 3.474 0.156 6.64 0.156 9.678 0 3.224-0.058 6.474-0.174 9.686-2.48 74.1-33.3 143.456-86.782 195.292-53.604 51.952-124.128 80.564-198.584 80.564-157.436 0-285.52-128.092-285.52-285.54-0.002-157.436 128.082-285.52 285.518-285.52m0-10C288 279.44 155.44 412 155.44 574.96S288 870.5 450.96 870.5c159.6 0 290.06-127.18 295.36-285.52 0.12-3.32 0.18-6.66 0.18-10.02 0-3.34-0.06-6.66-0.16-9.98-2.48-73.96-32.28-141.1-79.56-191.68l-43.46 43.46c36.2 39.4 59.1 91.2 61.5 148.22 0.14 3.3 0.22 6.64 0.22 9.98 0 3.36-0.08 6.7-0.22 10.02-5.26 124.46-108.14 224.06-233.86 224.06-129.06 0-234.08-105-234.08-234.08 0-129.06 105.02-234.08 234.08-234.08 60.94 0 116.52 23.42 158.22 61.72l43.46-43.44c-52.86-49.42-123.78-79.72-201.68-79.72z" fill="#050505" opacity=".2" /><path d="M824.24 574.96c0 3.36-0.04 6.7-0.14 10.02-5.32 201.2-170.68 363.26-373.14 363.26-205.82 0-373.28-167.46-373.28-373.28s167.46-373.28 373.28-373.28c99.32 0 189.7 39 256.66 102.5l-40.84 40.82c-56.48-53.02-132.42-85.56-215.82-85.56-173.98 0-315.52 141.54-315.52 315.52s141.54 315.54 315.52 315.54c170.62 0 310.08-136.16 315.38-305.52 0.1-3.32 0.16-6.66 0.16-10.02 0-3.34-0.06-6.66-0.16-9.98-2.48-79.46-34.5-151.62-85.42-205.84l40.84-40.82c61.34 64.68 99.84 151.26 102.34 246.66 0.1 3.32 0.14 6.64 0.14 9.98z" fill="#EC7063" /><path d="M441.16 577c0.2 0.88 0.5 1.76 0.92 2.58-0.42-0.8-0.72-1.68-0.92-2.58zM442.16 579.74c0.46 0.82 1.04 1.6 1.74 2.3-0.68-0.66-1.26-1.44-1.74-2.3zM445.46 583.32c1.36 0.9 2.9 1.42 4.48 1.6-1.64-0.16-3.16-0.72-4.48-1.6zM512.68 564.98c0.52 3.26 0.8 6.58 0.8 9.98 0 3.4-0.28 6.76-0.8 10.02h-61.72c-0.32 0-0.64-0.02-0.96-0.06 0.32 0.02 0.64 0.04 0.96 0.04 2.56 0 5.12-0.98 7.08-2.92l17.06-17.06h37.58zM586.94 564.98c0.24 3.3 0.36 6.62 0.36 9.98s-0.12 6.72-0.38 10.02h-54.04c0.4-3.28 0.6-6.62 0.6-10.02 0-3.38-0.2-6.72-0.62-9.98h54.08zM664.82 564.98c0.14 3.3 0.22 6.64 0.22 9.98 0 3.36-0.08 6.7-0.24 10.02h-57.82c0.22-3.32 0.32-6.66 0.32-10.02s-0.1-6.68-0.32-9.98h57.84zM746.34 564.98c0.1 3.32 0.16 6.64 0.16 9.98 0 3.36-0.06 6.7-0.18 10.02h-61.5c0.14-3.32 0.22-6.66 0.22-10.02 0-3.34-0.08-6.68-0.22-9.98h61.52zM824.24 574.96c0 3.36-0.04 6.7-0.14 10.02h-57.76c0.1-3.32 0.16-6.66 0.16-10.02 0-3.34-0.06-6.66-0.16-9.98h57.76c0.1 3.32 0.14 6.64 0.14 9.98z" fill="#23130D" opacity=".2" /></svg>